<svg height="512pt" viewBox="0 0 512 512" width="512pt" xmlns="http://www.w3.org/2000/svg"><g fill="#fff"><path d="m475.707031 247.304688h-439.675781l219.839844-183.933594zm0 0"/><path d="m121.125 216.402344 134.746094-112.738282 134.746094 112.738282zm0 0"/><path d="m113.652344 281.0625h-66.757813l-4.230469-33.757812h75.222657zm0 0"/><path d="m117.886719 437.753906h-75.222657l4.230469-33.757812h66.757813zm0 0"/><path d="m58.5 281.0625h43.546875v122.933594h-43.546875zm0 0"/><path d="m229.097656 281.0625h-66.757812l-4.230469-33.757812h75.21875zm0 0"/><path d="m233.328125 437.753906h-75.21875l4.230469-33.757812h66.757812zm0 0"/><path d="m173.945312 281.0625h43.546876v122.933594h-43.546876zm0 0"/><path d="m398.089844 281.0625h66.757812l4.234375-33.757812h-75.222656zm0 0"/><path d="m393.859375 437.753906h75.222656l-4.234375-33.757812h-66.757812zm0 0"/><path d="m453.242188 403.996094h-43.546876v-122.929688h43.546876zm0 0"/><path d="m282.644531 281.0625h66.761719l4.230469-33.757812h-75.222657zm0 0"/><path d="m278.414062 437.753906h75.222657l-4.230469-33.757812h-66.761719zm0 0"/><path d="m337.796875 403.996094h-43.546875v-122.929688h43.546875zm0 0"/><path d="m32.964844 437.753906h445.8125v33.542969h-445.8125zm0 0"/><path d="m7.554688 471.335938h496.636718v33.542968h-496.636718zm0 0"/><path d="m449.699219 225.546875v-136.386719h-163.007813zm0 0"/><path d="m225.046875 89.160156h-163.003906v136.382813zm0 0"/></g><path d="m255.871094 7.496094h52.800781v36.46875h-52.800781zm0 0" fill="#80b6f7"/><path d="m270.859375 75.910156-14.988281-12.539062-219.839844 183.933594h29.980469zm0 0" fill="#bfdbfb"/><path d="m255.871094 103.664062-134.746094 112.738282h29.976562l119.757813-100.199219zm0 0" fill="#bfdbfb"/><path d="m42.664062 247.304688 4.230469 33.757812h29.980469l-4.234375-33.757812zm0 0" fill="#bfdbfb"/><path d="m46.894531 403.996094-4.230469 33.757812h29.976563l4.234375-33.757812zm0 0" fill="#bfdbfb"/><path d="m58.5 281.0625h19.988281v122.933594h-19.988281zm0 0" fill="#bfdbfb"/><path d="m158.109375 247.304688 4.230469 33.757812h29.976562l-4.230468-33.757812zm0 0" fill="#bfdbfb"/><path d="m162.339844 403.996094-4.230469 33.757812h29.976563l4.230468-33.757812zm0 0" fill="#bfdbfb"/><path d="m173.945312 281.0625h19.984376v122.933594h-19.984376zm0 0" fill="#bfdbfb"/><path d="m393.859375 247.304688 4.230469 33.757812h29.976562l-4.230468-33.757812zm0 0" fill="#bfdbfb"/><path d="m398.089844 403.996094-4.230469 33.757812h29.976563l4.230468-33.757812zm0 0" fill="#bfdbfb"/><path d="m409.695312 281.0625h19.984376v122.933594h-19.984376zm0 0" fill="#bfdbfb"/><path d="m278.414062 247.304688 4.230469 33.757812h29.980469l-4.234375-33.757812zm0 0" fill="#bfdbfb"/><path d="m282.644531 403.996094-4.230469 33.757812h29.976563l4.234375-33.757812zm0 0" fill="#bfdbfb"/><path d="m294.25 281.0625h19.988281v122.933594h-19.988281zm0 0" fill="#bfdbfb"/><path d="m32.964844 437.753906h32.523437v33.542969h-32.523437zm0 0" fill="#bfdbfb"/><path d="m7.554688 471.335938h32.523437v33.542968h-32.523437zm0 0" fill="#bfdbfb"/><path d="m316.671875 89.160156h-29.980469l163.007813 136.386719v-25.082031zm0 0" fill="#bfdbfb"/><path d="m92.023438 89.160156h-29.980469v136.382813l29.980469-25.085938zm0 0" fill="#bfdbfb"/><path d="m255.871094 7.496094h29.980468v36.46875h-29.980468zm0 0" fill="#4092f2"/><path d="m275.855469 181.019531h-14.988281v-14.988281h14.988281zm-24.980469 0h-14.988281v-14.988281h14.988281zm0 0" fill="#fff"/><path d="m255.871094 93.890625-155.382813 130.007813h310.761719zm0 19.542969 114.105468 95.472656h-228.21875zm0 0"/><path d="m486.285156 464.171875v-33.582031l-10.550781-.015625-4.273437-34.074219h-10.722657v-107.941406h10.722657l4.234374-33.757813h20.644532l-232.976563-194.933593v-8.410157h52.804688v-51.457031h-67.789063c0 61.203125-.003906 59.46875-.003906 59.867188l-232.980469 194.933593h20.65625l4.230469 33.757813h10.722656v107.941406h-10.722656l-4.191406 34.074219-10.609375-.644531v33.582031l-25.4101565-.039063-.0703125 48.527344h511.625l.070312-47.792969zm-445.789062-18.921875h430.800781v18.921875h-430.828125zm79.769531-48.75h-10.722656v-107.941406h10.722656l4.234375-33.757813h26.992188l4.234374 33.757813h10.722657v107.941406h-10.722657l-4.214843 34.074219h-27.035157zm222.527344-122.929688h-53.53125l-2.355469-18.769531h58.238281zm2.351562 157.003907h-58.238281l2.351562-19.085938h53.53125zm-14.839843-34.074219h-28.558594v-107.941406h28.558594zm-54.273438-107.941406h10.726562v107.941406h-10.726562l-4.234375 34.074219h-31.855469l-4.230468-34.074219h-10.722657v-107.941406h10.722657l4.234374-33.757813h31.855469zm-109.414062 142.015625 2.335937-19.085938h53.53125l2.347656 19.085938zm14.824218-142.015625h28.554688v107.941406h-28.554688zm41.042969-14.988282h-53.53125l-2.351563-18.769531h58.234376zm137.785156 157.003907-4.25-34.074219h-10.726562v-107.941406h10.726562l4.230469-33.757813h26.996094l4.234375 33.757813h10.722656v107.941406h-10.722656l-4.257813 34.074219zm100.320313 0h-58.238282l2.351563-19.085938h53.53125zm-14.839844-34.074219h-28.558594v-107.941406h28.558594zm12.484375-122.929688h-53.53125l-2.351563-18.769531h58.238282zm-194.867187-258.582031h37.808593v21.480469h-37.808593zm-7.496094 58.152344 199.199218 166.671875h-398.402343zm-146.476563 181.660156-2.355469 18.769531h-53.527343l-2.355469-18.769531zm-43.398437 33.757813h28.558594v107.941406h-28.558594zm-12.484375 122.929687h53.527343l2.328126 19.085938h-58.175782zm443.144531 85.550781h-481.644531l.023437-18.554687h481.648438zm0 0"/><path d="m442.207031 195.582031h14.988281v-113.917969h-134.6875v14.992188h119.699219zm0 0"/><path d="m69.539062 96.65625h119.691407v-14.992188h-134.679688v113.910157h14.988281zm0 0"/></svg>