<svg id="Capa_1" enable-background="new 0 0 512 512" height="512" viewBox="0 0 512 512" width="512" xmlns="http://www.w3.org/2000/svg"><g><path d="m421.667 49.7h-125.034v-26.2c0-12.958-10.542-23.5-23.5-23.5h-34.266c-12.958 0-23.5 10.542-23.5 23.5v26.2h-69.867c-4.143 0-7.5 3.357-7.5 7.5s3.357 7.5 7.5 7.5h69.867v18.133h-25.634c-4.143 0-7.5 3.357-7.5 7.5s3.357 7.5 7.5 7.5h26.678c2.965 9.585 11.91 16.567 22.455 16.567h34.266c10.546 0 19.49-6.983 22.455-16.567h26.678c4.143 0 7.5-3.357 7.5-7.5s-3.357-7.5-7.5-7.5h-25.634v-18.133h125.034c14.134 0 25.633 11.499 25.633 25.633v340.4h-18.133v-17.633c0-8.547-6.953-15.5-15.5-15.5h-149.665c-8.547 0-15.5 6.953-15.5 15.5v17.634h-183.8v-340.4c0-14.135 11.499-25.634 25.633-25.634h24.832c4.143 0 7.5-3.357 7.5-7.5s-3.357-7.5-7.5-7.5h-24.832c-22.405 0-40.633 18.228-40.633 40.633v381.034c0 22.405 18.228 40.633 40.633 40.633h250.066c4.143 0 7.5-3.357 7.5-7.5s-3.357-7.5-7.5-7.5h-250.066c-14.134 0-25.633-11.499-25.633-25.633v-25.634h183.8v17.634c0 8.547 6.953 15.5 15.5 15.5h149.667c8.547 0 15.5-6.953 15.5-15.5v-17.634h18.133v25.634c0 14.134-11.499 25.633-25.633 25.633h-51.268c-4.143 0-7.5 3.357-7.5 7.5s3.357 7.5 7.5 7.5h51.268c22.405 0 40.633-18.228 40.633-40.633v-381.034c0-22.405-18.228-40.633-40.633-40.633zm-191.3-26.2c0-4.687 3.813-8.5 8.5-8.5h34.266c4.686 0 8.5 3.813 8.5 8.5v42.767h-51.266zm51.266 67.4c0 4.687-3.814 8.5-8.5 8.5h-34.266c-4.687 0-8.5-3.813-8.5-8.5v-9.634h51.266zm132.534 372.467c0 .275-.225.5-.5.5h-149.667c-.275 0-.5-.225-.5-.5v-50.267c0-.275.225-.5.5-.5h149.667c.275 0 .5.225.5.5z"/><path d="m264 197.233h83.4c8.547 0 15.5-6.953 15.5-15.5v-17.133c0-8.547-6.953-15.5-15.5-15.5h-83.4c-8.547 0-15.5 6.953-15.5 15.5v17.134c0 8.546 6.953 15.499 15.5 15.499zm-.5-32.633c0-.275.225-.5.5-.5h83.4c.275 0 .5.225.5.5v17.134c0 .275-.225.5-.5.5h-83.4c-.275 0-.5-.225-.5-.5z"/><path d="m248.5 248c0 8.547 6.953 15.5 15.5 15.5h149.667c8.547 0 15.5-6.953 15.5-15.5v-17.133c0-8.547-6.953-15.5-15.5-15.5h-149.667c-8.547 0-15.5 6.953-15.5 15.5zm15-17.133c0-.275.225-.5.5-.5h149.667c.275 0 .5.225.5.5v17.133c0 .275-.225.5-.5.5h-149.667c-.275 0-.5-.225-.5-.5z"/><path d="m248.5 314.267c0 8.547 6.953 15.5 15.5 15.5h50.267c8.547 0 15.5-6.953 15.5-15.5v-17.134c0-8.547-6.953-15.5-15.5-15.5h-50.267c-8.547 0-15.5 6.953-15.5 15.5zm15-17.134c0-.275.225-.5.5-.5h50.267c.275 0 .5.225.5.5v17.134c0 .275-.225.5-.5.5h-50.267c-.275 0-.5-.225-.5-.5z"/><path d="m338.833 430.733h-49.7c-4.143 0-7.5 3.357-7.5 7.5s3.357 7.5 7.5 7.5h49.7c4.143 0 7.5-3.357 7.5-7.5s-3.357-7.5-7.5-7.5z"/><path d="m388.533 430.733h-16.566c-4.143 0-7.5 3.357-7.5 7.5s3.357 7.5 7.5 7.5h16.566c4.143 0 7.5-3.357 7.5-7.5s-3.357-7.5-7.5-7.5z"/><path d="m213.8 239.434v-10.966c4.929-2.673 8.283-7.894 8.283-13.885v-24.85c0-22.405-18.227-40.634-40.633-40.634h-49.7c-22.405 0-40.633 18.229-40.633 40.634v24.85c0 5.99 3.354 11.211 8.283 13.885v10.148c0 17.403 7.723 33.13 19.862 43.81-20.713 3.923-36.429 22.147-36.429 43.983v28.991c0 13.271 10.797 24.066 24.067 24.066h99.4c13.27 0 24.067-10.796 24.067-24.066v-28.992c0-21.726-15.556-39.88-36.114-43.927.833-.731 1.655-1.48 2.451-2.264 11.025-10.84 17.096-25.324 17.096-40.783zm-107.683-49.701c0-14.135 11.499-25.634 25.633-25.634h49.7c14.134 0 25.633 11.499 25.633 25.634v24.85c0 .433-.352.784-.783.784-12.146 0-22.71-8.621-25.12-20.499-1.485-7.321-7.986-12.635-15.458-12.635h-18.243c-7.472 0-13.973 5.314-15.457 12.634-2.412 11.879-12.977 20.5-25.121 20.5-.432 0-.783-.352-.783-.784v-24.85zm8.283 48.882v-8.956c15.962-3.016 29.003-15.465 32.321-31.808.072-.357.391-.617.757-.617h18.243c.366 0 .685.26.757.617 3.317 16.343 16.359 28.792 32.321 31.808v9.775c0 11.405-4.48 22.091-12.612 30.089-7.958 7.826-18.439 12.11-29.585 12.11-.241 0-.484-.002-.727-.006-22.869-.382-41.475-19.677-41.475-43.012zm12.01 82.282c-.087.132-.265.408-.749.343-.479-.06-.588-.367-.641-.517l-7.847-22.199c3.249-1.22 6.765-1.892 10.435-1.892h14.978zm30.19-18.243 11.913 17.87-11.442 8.582c-.278.208-.664.206-.94 0l-11.443-8.582zm14.013-6.021h14.979c3.67 0 7.186.672 10.435 1.892l-7.847 22.199c-.052.148-.161.456-.642.517-.478.059-.662-.213-.749-.343zm44.754 58.767c0 4.999-4.067 9.066-9.067 9.066h-99.4c-5 0-9.067-4.067-9.067-9.066v-28.992c0-7.098 2.5-13.621 6.662-18.743l6.383 18.058c2.004 5.671 6.957 9.657 12.926 10.402.667.083 1.331.124 1.99.124 3.704 0 7.23-1.296 10.029-3.624l11.307 8.48c2.788 2.091 6.129 3.137 9.47 3.137 3.342 0 6.683-1.046 9.471-3.137l11.307-8.48c2.798 2.327 6.325 3.624 10.028 3.624.659 0 1.324-.041 1.991-.124 5.968-.745 10.921-4.73 12.926-10.402l6.383-18.058c4.161 5.122 6.662 11.645 6.662 18.743v28.992z"/><path d="m140.033 246.934c4.143 0 7.5-3.357 7.5-7.5v-4.142c0-4.143-3.357-7.5-7.5-7.5s-7.5 3.357-7.5 7.5v4.142c0 4.142 3.358 7.5 7.5 7.5z"/><path d="m173.167 246.934c4.143 0 7.5-3.357 7.5-7.5v-4.142c0-4.143-3.357-7.5-7.5-7.5s-7.5 3.357-7.5 7.5v4.142c0 4.142 3.357 7.5 7.5 7.5z"/></g></svg>